<?xml version="1.0" encoding="UTF-8"?>
<svg width="19px" height="19px" viewBox="0 0 19 19" version="1.1" xmlns="http://www.w3.org/2000/svg" xmlns:xlink="http://www.w3.org/1999/xlink">
    <g stroke="none" stroke-width="1" fill="none" fill-rule="evenodd">
        <g transform="translate(-32.000000, -74.000000)" fill="#7085FD" fill-rule="nonzero" stroke="#7085FD">
            <g transform="translate(33.000000, 75.000000)">
                <path d="M16.1904762,7.69047619 L9.30952381,7.69047619 L9.30952381,7.69047619 L9.30952381,0.80952381 C9.30952381,0.362436155 8.94708765,-8.21286698e-17 8.5,0 C8.05291235,8.21286698e-17 7.69047619,0.362436155 7.69047619,0.80952381 L7.69047619,7.69047619 L7.69047619,7.69047619 L0.80952381,7.69047619 C0.362436155,7.69047619 -5.47524465e-17,8.05291235 0,8.5 C5.47524465e-17,8.94708765 0.362436155,9.30952381 0.80952381,9.30952381 L7.69047619,9.30952381 L7.69047619,9.30952381 L7.69047619,16.1904762 C7.69047619,16.6375638 8.05291235,17 8.5,17 C8.94708765,17 9.30952381,16.6375638 9.30952381,16.1904762 L9.30952381,9.30952381 L9.30952381,9.30952381 L16.1904762,9.30952381 C16.6375638,9.30952381 17,8.94708765 17,8.5 C17,8.05291235 16.6375638,7.69047619 16.1904762,7.69047619 Z" id="Path"></path>
            </g>
        </g>
    </g>
</svg>